<svg id="Capa_1" enable-background="new 0 0 512 512" height="512" viewBox="0 0 512 512" width="512" xmlns="http://www.w3.org/2000/svg"><g><g><path d="m392.996 337.127c-176.843-25.067-126.891-2.744-105.996-198.626.298-1.98-.919-3.875-2.844-4.431-16.411-4.25-42.707-17.798-50.383 6.465 0-.001-18.75 64.959-18.75 64.959-.182.63-.206 1.295-.07 1.938l44.69 211.209c3.137 6.448-4.727 19.409 1.633 21.026.001 0 79.154 22.847 79.154 22.847 10.392 3.329 22.47-3.46 25.069-13.771 0 0 30.75-106.55 30.75-106.55.695-2.246-.914-4.771-3.253-5.066zm-39.971 63.071-39.948 27.734-27.734-39.949c-8.633-11.613.485-29.616 14.875-29.5 7.671 0 15.622 5.354 19.784 13.322.572 1.096 1.619 1.865 2.835 2.085 1.205.219 2.467-.133 3.385-.962 4.735-4.259 10.812-6.702 16.671-6.702 16.477-1.247 25.506 24.234 10.132 33.972z" fill="#f0f1fa"/><path d="m82.884 486.436c-14.313 0-27.089-10.401-29.717-24.194.944-14.235-62.496-249.113-45.245-256.835 4.431-6.8 11.23-11.466 19.149-13.138l148.058-31.33c1.978-.466 4.115-.712 6.263-.712 14.112 0 27.169 10.632 29.726 24.206-.962 14.188 62.562 249.244 45.192 256.831-4.494 6.886-11.48 11.678-19.172 13.148l-147.983 31.315c-1.988.465-4.125.709-6.271.709zm48.804-125.472c10.748 1.311-4.523 32.685-13.133 47.979l67.717-16.531c-14.278-8.842-48.178-35.255-30.838-36.838 24.302 9.193 57.321-4.662 50.258-38.602-2.027-15.256-24-27.35-38.218-28.389-1.82-.264-3.226-1.735-3.407-3.566-1.186-36.983-44.201-48.417-67.913-25.846-12.093 11.341-14.577 26.221-7.383 44.229 1.463 5.914-8.788 8.649-13.094 15.532-26.111 30.63 3.367 65.21 33.374 56.155 5.237-1.275 12.304-5.906 19.898-13.038.76-.715 1.744-1.085 2.739-1.085z" fill="#fff"/><path d="m443.334 345.327c-37.088-4.956-151.741-22.672-154.103-22.664-7.7-.981-14.973-5.35-19.882-11.977-17.884-5.637 31.515-245.945 29.596-259.162 1.812-14.255 15.226-25.923 29.894-25.923 1.573 0 3.15.135 4.689.401l149.599 22.295c8.007 1.192 15.076 5.44 19.905 11.96 17.81 5.702-31.541 245.983-29.632 259.186-1.861 14.478-15.069 25.884-30.066 25.884zm-98.045-83.903c21.507 3.913 53.098 9.66 70.989 12.908-4.809-5.383-22.54-26.606-23.676-48.058-.302-3.614 4.524-5.678 6.924-2.935 8.434 9.072 18.392 13.867 28.798 13.867 69.31-16.499 29.717-83.935-21.245-139.47-60.417 34.486-107.489 60.157-86.164 107.168 6.564 12.084 15.494 18.181 27.21 17.934 9.539.166 17.061-3.407 23.581-5.306 2.771-.092 4.875 3.077 3.665 5.605-8.68 19.813-33.037 33.493-39.085 36.647z" fill="#fff"/><path d="m409.342 98.696c-1.215-1.313-3.151-1.651-4.727-.859-34.601 18.163-79.155 44.831-89.792 77.161-2.143 10.726 1.174 24.864 8.257 35.183 11.509 20.924 42.152 12.883 53.659 5.571-4.595 28.21-47.79 40.469-32.52 46.496 116.698 20.412 49.213 16.443 49.704-43.362 22.223 28.319 60.785 27.105 72.279-16.28 1.849-33.594-31.03-74.885-56.86-103.91z" fill="#494a57"/><path d="m99.216 377.143c15.874 1.432 29.878-13.576 36.383-20.415-7.425 59.956-45.362 59.173 44.138 38.312 3.288-.69 4.147-5.41 1.288-7.201-18.165-12.796-26.426-21.547-33.955-33.931 68.119 27.208 85.321-59.846 18.189-66.657-1.68-66.403-105.066-44.027-76.522 18.75-29.243 15.152-37.077 68.802 10.479 71.142z" fill="#494a57"/><path d="m310.54 426.035c1.268 1.828 3.773 2.256 5.567 1.005l37.505-26.03c7.251-5.08 10.148-13.33 7.561-21.529-7.885-19.632-24.491-17.025-38.332-5.446-10.798-21.516-35.864-22.232-41.509-.262-4.265 12.455 24.345 42.324 29.208 52.262z" fill="#d34242"/><path d="m148.303 121.63c-8.651-2.735-16.519-7.104-23.384-12.984-2.066-1.867-5.653-.841-6.416 1.833-2.731 8.64-7.103 16.507-12.994 23.383-.874 1.02-1.178 2.412-.808 3.703.37 1.292 1.363 2.311 2.645 2.715 8.619 2.712 16.489 7.081 23.391 12.984 2.067 1.867 5.655.838 6.415-1.837 2.725-8.648 7.092-16.513 12.981-23.377 1.868-2.058.846-5.66-1.83-6.42z" fill="#d34242"/><path d="m286.13 70.001c-1.644-9.628-10.719-17.171-20.662-17.171-4.07-.421-165.985 35.134-170.28 35.591-11.073 2.113-18.783 13.93-16.204 24.92 0 0 13.13 62.1 13.13 62.1.408 2.108 2.649 3.575 4.742 3.085 0 0 78.499-16.614 78.499-16.614 2.155-.467 4.313-.704 6.416-.704 15.708 0 28.618 13.388 30.029 31.142.153 1.926 1.662 3.468 3.585 3.663 5.781 4.328 17.493-53.718 19.38-55.279 11.369-31.745 49.604 4.066 53.279-9.22 0-.001 4.23-28.361 4.23-28.361.067-.446.057-.901-.028-1.345zm-151.219 85.749c-8.833-8.72-19.823-14.822-31.889-17.705 8.715-8.834 14.82-19.825 17.711-31.889 8.832 8.711 19.822 14.813 31.889 17.706-8.716 8.834-14.82 19.823-17.711 31.888z" fill="#d8deec"/></g><g><path d="m483.571 45.333-149.688-22.314c-17.673-3.008-35.617 10.281-37.893 28.062l-4.561 30.598-2.368-12.324c-2.195-12.899-15.824-21.949-28.565-18.97l-165.92 35.104c-12.96 2.743-21.273 15.517-18.531 28.477l13.138 62.095-62.738 13.274c-17.987 3.805-29.525 21.534-25.719 39.521l49.528 234.089c3.729 18.105 21.978 29.568 39.521 25.718 0 0 148.065-31.327 148.065-31.327 8.962-1.894 16.678-7.301 21.466-15.117l80.367 23.198c11.865 3.709 25.513-3.802 28.707-15.846l31.016-107.45c28.694 3.453 68.24 18.625 76.961-22.238l35.278-236.655c2.708-18.186-9.881-35.184-28.064-37.895zm-400.679 67.184c-1.943-9.184 3.948-18.237 13.132-20.18l165.919-35.104c9.03-2.112 18.687 4.303 20.243 13.444l6.128 31.888-4.228 28.362-24.486-7.068c-11.903-3.705-25.498 3.801-28.707 15.846l-15.106 52.333c-1.695-21.276-19.188-38.825-41.28-34.03l-78.477 16.604zm153.499 337.971-148.065 31.327c-13.791 3.22-28.581-6.408-31.225-20.319l-49.528-234.089c-3.007-14.211 6.109-28.219 20.32-31.225l66.162-13.998 81.903-17.329c13.732-3.23 28.605 6.411 31.225 20.32l49.528 234.089c3.188 13.841-6.401 28.557-20.32 31.224zm125.263-2.859c-2.24 8.41-11.732 13.648-20.041 11.063l-79.23-22.87c2.034-5.725 2.464-11.913 1.175-18.008l-44.688-211.214 18.749-64.954c2.241-8.41 11.731-13.649 20.041-11.063l25.385 7.327-22.334 149.827c-3.009 17.672 10.281 35.617 28.062 37.893l103.637 15.449zm143.056-365.434-35.277 236.655c-1.797 14.049-15.956 24.404-29.939 22.171-37.362-5.965-149.689-22.313-149.689-22.313-14.049-1.798-24.549-15.977-22.171-29.939l35.278-236.656c1.772-14.042 16.041-24.565 29.939-22.171l149.689 22.314c14.366 2.141 24.312 15.572 22.17 29.939z"/><path d="m282.056 390.259 28.017 40.365c1.109 1.599 3.301 1.974 4.87.88l40.365-28.018c10.316-7.16 12.883-21.377 5.723-31.693-8.98-13.221-26.545-11.674-37.489-1.838-6.81-13.045-22.734-20.635-35.764-11.39-10.315 7.161-12.882 21.378-5.722 31.694zm9.714-25.944c12.43-8.176 21.925 2.23 28.064 12.476 1.102 1.535 3.224 1.92 4.793.866l8.907-5.977c17.045-11.29 34.552 14.306 17.785 26.057l-37.491 26.022-26.022-37.49c-4.979-6.866-3.101-17.263 3.964-21.954z"/><path d="m154.382 120.166c-11.957-2.699-22.829-8.736-31.441-17.46-1.823-1.969-5.396-.945-5.904 1.688-2.699 11.957-8.736 22.829-17.46 31.441-1.968 1.823-.945 5.396 1.688 5.904 11.957 2.699 22.829 8.736 31.441 17.46 1.833 1.97 5.394.943 5.904-1.688 2.699-11.957 8.736-22.83 17.46-31.441 1.967-1.824.945-5.397-1.688-5.904zm-21.048 30.059c-7.256-6.216-15.672-10.889-24.784-13.763 6.216-7.256 10.889-15.671 13.762-24.784 7.256 6.217 15.672 10.889 24.784 13.763-6.216 7.257-10.889 15.672-13.762 24.784z"/><path d="m184.377 289.073c-6.603-2.727-12.799-3.936-16.329-4.448-2.59-26.184-17.517-35.843-29.826-39.311-15.724-4.43-32.893-.239-44.806 10.938-9.326 8.749-18.123 24.2-8.357 48.632-2.897 2.081-7.839 6.009-12.443 11.472-9.446 11.208-12.886 23.493-9.948 35.528 7.043 28.848 34.041 30.334 47.331 27.09 7.552-1.844 15.933-8.605 21.688-14.016-1.57 9.083-5.805 24.222-17.175 42.937-1.663 2.533.923 6.035 3.821 5.217l70.055-17.102c2.961-.619 3.624-4.907.987-6.39-18.717-11.372-29.452-22.858-35.029-30.193 7.602 2.149 18.155 4.288 25.708 2.445 3.144-.767 14.032-3.97 22.152-12.954 5.533-6.121 11.302-16.797 7.372-32.898-2.939-12.034-11.653-21.352-25.201-26.947zm12.636 55.153c-15.768 17.016-34.394 10.98-49.682 5.524-2.805-1.211-5.826 1.974-4.465 4.71.361.79 8.563 18.223 35.921 36.689l-54.175 13.225c15.771-28.995 15.018-48.246 14.974-49.113-.056-3.052-4.19-4.496-6.133-2.124-3.979 4.561-16.246 16.872-25.115 19.038-1.292.314-31.711 7.383-38.871-21.951-5.818-23.831 21.482-40.898 21.755-41.066 1.5-.916 2.089-2.802 1.375-4.408-16.991-32.131 13.136-61.182 43.726-52.7 15.38 4.334 23.781 16.422 24.971 35.929.107 1.751 1.498 3.153 3.247 3.278 15.975-.392 55.989 20.097 32.472 52.969z"/><path d="m405.645 93.984c-51.172 25.19-89.735 58.314-93.779 80.551-1.882 10.345.129 22.099 5.517 32.249 5.657 10.656 14.219 17.735 23.492 19.421 11.68 2.126 23.456-1.522 30.833-4.669-9.189 20.978-38.174 35.165-38.499 35.322-3.011 1.331-2.365 6.114.892 6.596 20.67 3.76 62.266 11.325 82.931 15.084 3.201.702 5.515-3.553 3.158-5.859-.249-.261-22.383-23.746-23.596-46.615 26.334 28.317 64.681 14.786 72.559-22.92 4.623-22.125-20.385-66.819-59.409-108.414-1.055-1.123-2.718-1.427-4.099-.746zm56.621 107.907c-3.426 18.833-22.199 35.24-37.208 32.514-16.013-2.913-28.575-18.687-28.697-18.843-1.729-2.365-5.77-1.367-6.198 1.531-3.696 20.319 9.957 41.738 18.536 52.817-15.892-2.89-47.873-8.707-63.761-11.597 11.931-7.349 32.251-22.589 35.947-42.907.618-2.861-2.808-5.215-5.259-3.618-.173.105-17.487 10.446-33.498 7.532-16.35-2.802-26.487-27.986-23.376-43.532 1.771-8.851 11.289-21.541 26.542-34.736 16.246-14.053 37.337-27.727 61.116-39.634 18.063 19.518 32.989 39.742 43.245 58.616 9.629 17.72 14.226 32.976 12.611 41.857z"/></g></g></svg>